<svg width="49" height="22" viewBox="0 0 49 22" fill="none" xmlns="http://www.w3.org/2000/svg">
<path d="M47.4274 10.1609C47.8617 10.2267 48.1409 10.5229 48.265 11.0493C48.203 11.5099 47.9238 11.7731 47.4274 11.8389H3.31415L11.504 20.5251C11.7521 20.9199 11.7521 21.3148 11.504 21.7096C11.3799 21.7754 11.1937 21.8412 10.9456 21.907C10.7594 21.907 10.5733 21.8412 10.3872 21.7096L0.894439 11.6415C0.832395 11.5757 0.770351 11.477 0.708307 11.3454C0.646263 11.148 0.646263 10.9177 0.708307 10.6545C0.708307 10.5887 0.77035 10.49 0.894439 10.3584L10.3872 0.290309C10.7594 0.027091 11.1317 0.027091 11.504 0.290309C11.7521 0.685136 11.7521 1.07996 11.504 1.47478L3.31415 10.1609H47.4274Z" fill="white"/>
</svg>
